<svg width="24" height="24" viewBox="0 0 24 24" fill="none" xmlns="http://www.w3.org/2000/svg">
<path d="M11.9619 17.986H18.7719C19.0371 18.0008 19.3017 17.9475 19.5404 17.8311C19.7791 17.7147 19.9841 17.5391 20.1357 17.321C20.2873 17.1029 20.3805 16.8496 20.4065 16.5853C20.4324 16.321 20.3902 16.0544 20.2839 15.811C19.9239 14.723 18.4889 13.418 18.4889 12.134C18.4889 9.28397 18.4889 8.53397 17.0849 6.85797C16.6305 6.31851 16.0672 5.88127 15.4319 5.57497L14.6489 5.19497C14.5175 5.11567 14.4042 5.00976 14.3162 4.88403C14.2282 4.75831 14.1674 4.61557 14.1379 4.46497C14.0596 3.95738 13.7912 3.49856 13.3871 3.18156C12.983 2.86457 12.4735 2.71313 11.9619 2.75797C11.4595 2.72781 10.9639 2.88599 10.5719 3.20163C10.1799 3.51728 9.9196 3.96772 9.84189 4.46497C9.80664 4.62076 9.73758 4.7669 9.6396 4.89305C9.54162 5.0192 9.41711 5.12227 9.27489 5.19497L8.49189 5.57497C7.85692 5.88139 7.29394 6.31862 6.83989 6.85797C5.43689 8.53397 5.43689 9.28397 5.43689 12.134C5.43689 13.418 4.06689 14.592 3.70689 15.745C3.48989 16.442 3.36989 17.986 5.18689 17.986H11.9619Z" stroke="white" stroke-width="1.5" stroke-linecap="round" stroke-linejoin="round"/>
<path d="M15.225 17.986C15.2335 18.4168 15.155 18.845 14.994 19.2447C14.8331 19.6445 14.5931 20.0076 14.2883 20.3123C13.9836 20.6171 13.6205 20.8571 13.2207 21.018C12.821 21.179 12.3928 21.2575 11.962 21.249C11.531 21.2581 11.1026 21.1799 10.7027 21.0192C10.3027 20.8584 9.93942 20.6184 9.63467 20.3135C9.32991 20.0087 9.08999 19.6453 8.92935 19.2453C8.76872 18.8453 8.69069 18.4169 8.69996 17.986" stroke="white" stroke-width="1.5" stroke-linecap="round" stroke-linejoin="round"/>
</svg>
