<svg width="22" height="20" viewBox="0 0 22 20" fill="none" xmlns="http://www.w3.org/2000/svg">
<path d="M6.49809 12.25H3.37227C2.34564 12.25 1.4267 11.556 1.31801 10.5351C1.27306 10.1129 1.25 9.68415 1.25 9.25C1.25 6.40238 2.24188 3.78642 3.899 1.72878C4.2866 1.24749 4.88581 1 5.50377 1L9.51975 1C10.0034 1 10.4839 1.07798 10.9428 1.23093L14.0572 2.26908C14.5161 2.42203 14.9966 2.5 15.4803 2.5L16.7745 2.5M6.49809 12.25C7.11638 12.25 7.48896 12.974 7.22337 13.5323C6.75956 14.5074 6.5 15.5984 6.5 16.75C6.5 17.9926 7.50736 19 8.75 19C9.16421 19 9.5 18.6642 9.5 18.25V17.6166C9.5 17.0441 9.60924 16.4769 9.82185 15.9454C10.1257 15.1857 10.7523 14.6144 11.4745 14.2298C12.5883 13.6366 13.5627 12.8162 14.3359 11.8303C14.8335 11.1958 15.5611 10.75 16.3674 10.75H16.7511M6.49809 12.25H8.7M16.7745 2.5C16.7851 2.55001 16.802 2.59962 16.8258 2.6478C17.4175 3.84708 17.75 5.19721 17.75 6.625C17.75 8.11175 17.3895 9.5143 16.7511 10.75M16.7745 2.5C16.6975 2.13534 16.9575 1.75 17.3493 1.75H18.2571C19.1458 1.75 19.9701 2.26802 20.2294 3.11804C20.5679 4.22737 20.75 5.40492 20.75 6.625C20.75 8.17746 20.4552 9.66107 19.9185 11.0229C19.6135 11.797 18.8327 12.25 18.0006 12.25H16.9479C16.476 12.25 16.2027 11.6941 16.4477 11.2907C16.5548 11.1144 16.6561 10.934 16.7511 10.75" stroke="#46CEC2" stroke-width="1.5" stroke-linecap="round" stroke-linejoin="round"/>
</svg>
