<svg width="17" height="18" viewBox="0 0 17 18" fill="none" xmlns="http://www.w3.org/2000/svg">
<path fill-rule="evenodd" clip-rule="evenodd" d="M8.32 3.17599H2C0.895 3.17599 0 4.12499 0 5.29399V15.882C0 17.052 0.895 18 2 18H13C14.105 18 15 17.052 15 15.882V8.13199L11.086 12.276C10.7442 12.6415 10.2991 12.8941 9.81 13L7.129 13.568C5.379 13.938 3.837 12.305 4.187 10.453L4.723 7.614C4.82 7.10199 5.058 6.63099 5.407 6.26199L8.32 3.17599Z" fill="#E9E9E9"/>
<path fill-rule="evenodd" clip-rule="evenodd" d="M16.8457 1.31799C16.7446 1.06202 16.5964 0.827291 16.4087 0.625988C16.2242 0.429117 16.0017 0.271623 15.7547 0.162988C15.5114 0.0561245 15.2485 0.000946045 14.9827 0.000946045C14.7169 0.000946045 14.454 0.0561245 14.2107 0.162988C13.9637 0.271623 13.7412 0.429117 13.5567 0.625988L13.0107 1.20399L15.8627 4.22399L16.4087 3.64499C16.5983 3.44521 16.7468 3.21008 16.8457 2.95299C17.0517 2.42746 17.0517 1.84352 16.8457 1.31799ZM14.4497 5.72099L11.5967 2.69999L6.8197 7.75999C6.74922 7.83508 6.70169 7.92876 6.6827 8.02999L6.1467 10.87C6.0767 11.24 6.3857 11.566 6.7347 11.492L9.4167 10.925C9.51429 10.9032 9.60311 10.8527 9.6717 10.78L14.4497 5.72099Z" fill="#E9E9E9"/>
</svg>
