<svg width="24" height="24" viewBox="0 0 24 24" fill="none" xmlns="http://www.w3.org/2000/svg">
<path fill-rule="evenodd" clip-rule="evenodd" d="M12.0005 3.71429C10.9124 3.71429 9.83495 3.9286 8.82968 4.345C7.82441 4.76139 6.911 5.37172 6.1416 6.14112C5.3722 6.91052 4.76188 7.82393 4.34549 8.82919C3.92909 9.83446 3.71477 10.9119 3.71477 12C3.71477 13.0881 3.92909 14.1655 4.34549 15.1708C4.76188 16.1761 5.3722 17.0895 6.1416 17.8589C6.911 18.6283 7.82441 19.2386 8.82968 19.655C9.83495 20.0714 10.9124 20.2857 12.0005 20.2857C14.198 20.2857 16.3055 19.4128 17.8594 17.8589C19.4132 16.305 20.2862 14.1975 20.2862 12C20.2862 9.80249 19.4132 7.69499 17.8594 6.14112C16.3055 4.58724 14.198 3.71429 12.0005 3.71429ZM2.00049 12C2.00049 9.34784 3.05406 6.8043 4.92942 4.92893C6.80478 3.05357 9.34832 2 12.0005 2C14.6527 2 17.1962 3.05357 19.0716 4.92893C20.9469 6.8043 22.0005 9.34784 22.0005 12C22.0005 14.6522 20.9469 17.1957 19.0716 19.0711C17.1962 20.9464 14.6527 22 12.0005 22C9.34832 22 6.80478 20.9464 4.92942 19.0711C3.05406 17.1957 2.00049 14.6522 2.00049 12Z" fill="#5CFEF0"/>
<path fill-rule="evenodd" clip-rule="evenodd" d="M10.6867 8.92454C9.61983 9.80199 8.90689 11.0362 8.67987 12.3988L8.1793 15.408C7.91987 16.9714 9.73701 18.0194 10.9599 17.0137L13.3153 15.0754C14.3822 14.1979 15.0951 12.9637 15.3222 11.6011L15.8227 8.59196C16.0822 7.02853 14.265 5.98054 13.0422 6.98625L10.6867 8.92454ZM12.001 10.2857C11.5464 10.2857 11.1103 10.4663 10.7888 10.7878C10.4673 11.1093 10.2867 11.5453 10.2867 12C10.2867 12.4546 10.4673 12.8907 10.7888 13.2121C11.1103 13.5336 11.5464 13.7142 12.001 13.7142C12.4557 13.7142 12.8917 13.5336 13.2132 13.2121C13.5347 12.8907 13.7153 12.4546 13.7153 12C13.7153 11.5453 13.5347 11.1093 13.2132 10.7878C12.8917 10.4663 12.4557 10.2857 12.001 10.2857Z" fill="#5CFEF0"/>
</svg>
