<svg width="28" height="28" viewBox="0 0 28 28" fill="none" xmlns="http://www.w3.org/2000/svg">
<path d="M7.49332 21.7247H10.8195V16.144C10.8195 15.8277 10.9259 15.5628 11.1388 15.3492C11.3517 15.1357 11.6148 15.0285 11.9282 15.0278H16.3631C16.6772 15.0278 16.9407 15.1349 17.1536 15.3492C17.3665 15.5636 17.4726 15.8285 17.4718 16.144V21.7247H20.798V11.6793L14.1457 6.65663L7.49332 11.6793V21.7247ZM5.27588 21.7247V11.6793C5.27588 11.3259 5.3546 10.991 5.51204 10.6748C5.66948 10.3585 5.88642 10.0981 6.16286 9.89348L12.8152 4.87078C13.2032 4.57314 13.6467 4.42432 14.1457 4.42432C14.6446 4.42432 15.0881 4.57314 15.4761 4.87078L22.1285 9.89348C22.4056 10.0981 22.623 10.3585 22.7804 10.6748C22.9378 10.991 23.0162 11.3259 23.0154 11.6793V21.7247C23.0154 22.3386 22.7981 22.8643 22.3635 23.3019C21.9289 23.7394 21.4071 23.9578 20.798 23.957H16.3631C16.049 23.957 15.7858 23.8499 15.5737 23.6356C15.3616 23.4213 15.2551 23.1564 15.2544 22.8409V17.2601H13.0369V22.8409C13.0369 23.1571 12.9305 23.4224 12.7176 23.6367C12.5047 23.851 12.2416 23.9578 11.9282 23.957H7.49332C6.88353 23.957 6.36169 23.7386 5.92781 23.3019C5.49393 22.8651 5.27662 22.3394 5.27588 21.7247Z" fill="#E9E9E9"/>
</svg>
