<svg width="47" height="47" viewBox="0 0 47 47" fill="none" xmlns="http://www.w3.org/2000/svg">
<path d="M43.0837 31.3333V7.83332C43.0837 6.79456 42.671 5.79834 41.9365 5.06382C41.202 4.3293 40.2058 3.91666 39.167 3.91666H15.667C14.6282 3.91666 13.632 4.3293 12.8975 5.06382C12.163 5.79834 11.7503 6.79456 11.7503 7.83332V31.3333C11.7503 32.3721 12.163 33.3683 12.8975 34.1028C13.632 34.8373 14.6282 35.25 15.667 35.25H39.167C40.2058 35.25 41.202 34.8373 41.9365 34.1028C42.671 33.3683 43.0837 32.3721 43.0837 31.3333ZM21.542 23.5L25.5174 28.8071L31.3337 21.5417L39.167 31.3333H15.667M3.91699 11.75V39.1667C3.91699 40.2054 4.32964 41.2016 5.06416 41.9362C5.79867 42.6707 6.79489 43.0833 7.83366 43.0833H35.2503V39.1667H7.83366V11.75" fill="#46CEC2"/>
</svg>
