<svg width="216" height="239" viewBox="0 0 216 239" fill="none" xmlns="http://www.w3.org/2000/svg">
<path d="M62 95.5L1 60V179L64 142.5C84.8 121.3 71.3333 102.333 62 95.5Z" fill="#80CFC4"/>
<path d="M1 22.612V45.612L85 93.1121C111 111.912 97.8333 134.945 88 144.112L1 194.112V212.612C4.6 236.612 26.8333 239.612 37.5 238.112L204.5 142.112C223.7 122.912 212.5 103.445 204.5 96.1121L43 3.11206C37.8 0.71206 31.8333 0.112044 29.5 0.112036C13.1 -1.48796 3.66667 14.4454 1 22.612Z" fill="#7CDACD"/>
<path d="M88 144L0 194.5V212.5C4 232.5 19.3333 238.167 26.5 238.5L88 144Z" fill="#417D75"/>
</svg>
