<svg width="69" height="68" viewBox="0 0 69 68" fill="none" xmlns="http://www.w3.org/2000/svg">
<path d="M18.75 34L32.25 45.0714L50.25 22.9286M34.5 65C30.3634 65 26.2672 64.1982 22.4455 62.6403C18.6237 61.0824 15.1512 58.7989 12.2261 55.9203C9.30109 53.0417 6.98082 49.6243 5.3978 45.8632C3.81477 42.1021 3 38.071 3 34C3 29.929 3.81477 25.8979 5.3978 22.1368C6.98082 18.3757 9.30109 14.9583 12.2261 12.0797C15.1512 9.20107 18.6237 6.91763 22.4455 5.35973C26.2672 3.80184 30.3634 3 34.5 3C42.8543 3 50.8665 6.26606 56.7739 12.0797C62.6813 17.8933 66 25.7783 66 34C66 42.2217 62.6813 50.1067 56.7739 55.9203C50.8665 61.7339 42.8543 65 34.5 65Z" stroke="#46CEC2" stroke-width="5"/>
</svg>
