<svg width="24" height="24" viewBox="0 0 24 24" fill="none" xmlns="http://www.w3.org/2000/svg">
<path d="M21.4444 22L14.4444 15.35C13.8889 15.7722 13.25 16.1065 12.5278 16.3528C11.8056 16.5991 11.037 16.7222 10.2222 16.7222C8.2037 16.7222 6.49556 16.0579 5.09778 14.7293C3.7 13.4007 3.00074 11.778 3 9.86111C2.99926 7.94422 3.69852 6.32148 5.09778 4.99289C6.49704 3.6643 8.20519 3 10.2222 3C12.2393 3 13.9478 3.6643 15.3478 4.99289C16.7478 6.32148 17.4467 7.94422 17.4444 9.86111C17.4444 10.6352 17.3148 11.3653 17.0556 12.0514C16.7963 12.7375 16.4444 13.3444 16 13.8722L23 20.5222L21.4444 22ZM10.2222 14.6111C11.6111 14.6111 12.7919 14.1495 13.7644 13.2262C14.737 12.303 15.223 11.1813 15.2222 9.86111C15.2215 8.54096 14.7356 7.41961 13.7644 6.49706C12.7933 5.5745 11.6126 5.11252 10.2222 5.11111C8.83185 5.1097 7.65148 5.57169 6.68111 6.49706C5.71074 7.42243 5.22445 8.54378 5.22222 9.86111C5.22 11.1784 5.7063 12.3001 6.68111 13.2262C7.65593 14.1523 8.8363 14.6139 10.2222 14.6111Z" fill="#7A7A7A"/>
</svg>
