<svg width="24" height="24" viewBox="0 0 24 24" fill="none" xmlns="http://www.w3.org/2000/svg">
<path d="M9.59426 3.94017C9.68467 3.39771 10.154 3.00012 10.704 3.00012H13.2979C13.8479 3.00012 14.3172 3.39771 14.4076 3.94017L14.6211 5.22122C14.6835 5.59527 14.9334 5.90683 15.2652 6.09048C15.3394 6.13154 15.4127 6.17396 15.4851 6.21769C15.8102 6.41396 16.2055 6.47499 16.5611 6.34178L17.7779 5.8859C18.2929 5.69297 18.8719 5.90063 19.1469 6.3769L20.4439 8.62333C20.7188 9.0996 20.6092 9.70485 20.1846 10.0544L19.1802 10.8812C18.8877 11.122 18.7427 11.4938 18.7498 11.8727C18.7505 11.915 18.7509 11.9575 18.7509 12.0001C18.7509 12.0427 18.7505 12.0852 18.7498 12.1276C18.7427 12.5064 18.8877 12.8782 19.1802 13.119L20.1846 13.9458C20.6092 14.2954 20.7188 14.9006 20.4439 15.3769L19.1469 17.6233C18.8719 18.0996 18.2929 18.3073 17.7779 18.1143L16.5611 17.6585C16.2055 17.5252 15.8102 17.5863 15.4851 17.7825C15.4127 17.8263 15.3394 17.8687 15.2652 17.9098C14.9334 18.0934 14.6835 18.405 14.6211 18.779L14.4076 20.0601C14.3172 20.6025 13.8479 21.0001 13.2979 21.0001H10.704C10.154 21.0001 9.68467 20.6025 9.59426 20.0601L9.38075 18.779C9.31841 18.405 9.06844 18.0934 8.73667 17.9098C8.6625 17.8687 8.58918 17.8263 8.51674 17.7826C8.19171 17.5863 7.79638 17.5253 7.44082 17.6585L6.22395 18.1143C5.70896 18.3073 5.12996 18.0996 4.85499 17.6233L3.55801 15.3769C3.28304 14.9006 3.39269 14.2954 3.81727 13.9459L4.82162 13.119C5.11413 12.8782 5.25913 12.5064 5.25211 12.1276C5.25133 12.0852 5.25094 12.0427 5.25094 12.0001C5.25094 11.9575 5.25133 11.9151 5.25211 11.8727C5.25913 11.4939 5.11413 11.122 4.82162 10.8812L3.81727 10.0544C3.39269 9.70487 3.28304 9.09961 3.55801 8.62335L4.85499 6.37691C5.12996 5.90065 5.70896 5.69298 6.22395 5.88591L7.4408 6.34179C7.79636 6.475 8.1917 6.41397 8.51673 6.2177C8.58917 6.17396 8.66249 6.13154 8.73667 6.09048C9.06844 5.90683 9.31841 5.59527 9.38075 5.22122L9.59426 3.94017Z" stroke="white" stroke-width="1.5" stroke-linecap="round" stroke-linejoin="round"/>
<path d="M15.0007 12C15.0007 13.6569 13.6576 15 12.0007 15C10.3438 15 9.0007 13.6569 9.0007 12C9.0007 10.3432 10.3438 9.00004 12.0007 9.00004C13.6576 9.00004 15.0007 10.3432 15.0007 12Z" stroke="white" stroke-width="1.5" stroke-linecap="round" stroke-linejoin="round"/>
</svg>