<svg width="20" height="19" viewBox="0 0 20 19" fill="none" xmlns="http://www.w3.org/2000/svg">
<path d="M11.3882 1.41339L11.3882 1.41341L13.1422 5.58243L13.2602 5.86298L13.5637 5.88697L18.1156 6.24696C19.4557 6.35342 19.9789 7.9929 18.974 8.84402L18.974 8.84405L15.5059 11.7821L15.2707 11.9813L15.3431 12.2809L16.4031 16.6707C16.7084 17.9379 15.3088 18.972 14.1556 18.2756C14.1556 18.2756 14.1556 18.2756 14.1556 18.2756L10.2585 15.9216L10.0001 15.7655L9.74156 15.9216L5.84447 18.2746L5.84443 18.2746C4.69097 18.9712 3.29172 17.9367 3.59692 16.6708L4.65691 12.2789L4.72924 11.9792L4.494 11.78L1.02595 8.84302C1.02594 8.84301 1.02593 8.843 1.02593 8.84299C0.0207614 7.99159 0.544711 6.35163 1.88413 6.24599L1.88435 6.24597L6.43645 5.88497L6.73973 5.86091L6.85776 5.58051L8.6118 1.41349L8.61184 1.41339C9.12415 0.195538 10.8758 0.195538 11.3882 1.41339Z" stroke="#46CEC2"/>
</svg>
