<svg width="24" height="24" viewBox="0 0 24 24" fill="none" xmlns="http://www.w3.org/2000/svg">
<path fill-rule="evenodd" clip-rule="evenodd" d="M12.0004 15.75C12.1993 15.75 12.39 15.671 12.5307 15.5303C12.6713 15.3897 12.7504 15.1989 12.7504 15V4.027L14.4304 5.988C14.5598 6.13917 14.744 6.23274 14.9424 6.24812C15.1408 6.2635 15.3372 6.19943 15.4884 6.07C15.6395 5.94058 15.7331 5.7564 15.7485 5.55798C15.7639 5.35957 15.6998 5.16317 15.5704 5.012L12.5704 1.512C12.5 1.42967 12.4125 1.36356 12.3141 1.31824C12.2157 1.27291 12.1087 1.24944 12.0004 1.24944C11.892 1.24944 11.785 1.27291 11.6866 1.31824C11.5882 1.36356 11.5008 1.42967 11.4304 1.512L8.43036 5.012C8.36628 5.08685 8.31756 5.1736 8.287 5.26728C8.25644 5.36096 8.24463 5.45974 8.25224 5.55798C8.25986 5.65623 8.28675 5.75201 8.33138 5.83986C8.37601 5.92771 8.43751 6.00592 8.51236 6.07C8.58722 6.13409 8.67396 6.1828 8.76764 6.21336C8.86132 6.24392 8.9601 6.25573 9.05835 6.24812C9.15659 6.2405 9.25237 6.21361 9.34022 6.16898C9.42808 6.12435 9.50628 6.06285 9.57036 5.988L11.2504 4.028V15C11.2504 15.414 11.5864 15.75 12.0004 15.75Z" fill="#E9E9E9"/>
<path d="M16 9C15.298 9 14.947 9 14.694 9.169C14.5852 9.24179 14.4918 9.33522 14.419 9.444C14.25 9.697 14.25 10.048 14.25 10.75V15C14.25 15.5967 14.0129 16.169 13.591 16.591C13.169 17.0129 12.5967 17.25 12 17.25C11.4033 17.25 10.831 17.0129 10.409 16.591C9.98705 16.169 9.75 15.5967 9.75 15V10.75C9.75 10.048 9.75 9.697 9.581 9.444C9.50821 9.33522 9.41478 9.24179 9.306 9.169C9.053 9 8.702 9 8 9C5.172 9 3.757 9 2.879 9.879C2 10.757 2 12.17 2 14.999V15.999C2 18.829 2 20.242 2.879 21.121C3.757 22 5.172 22 8 22H16C18.828 22 20.243 22 21.121 21.121C21.999 20.242 22 18.828 22 16V15C22 12.171 22 10.757 21.121 9.879C20.243 9 18.828 9 16 9Z" fill="#E9E9E9"/>
</svg>
