<svg width="47" height="47" viewBox="0 0 47 47" fill="none" xmlns="http://www.w3.org/2000/svg">
<path d="M7.83366 15.6667H3.91699V39.1667C3.91699 40.2054 4.32964 41.2016 5.06416 41.9362C5.79867 42.6707 6.79489 43.0833 7.83366 43.0833H31.3337V39.1667H7.83366V15.6667Z" fill="#46CEC2"/>
<path d="M39.1667 3.91666H15.6667C14.6279 3.91666 13.6317 4.3293 12.8972 5.06382C12.1626 5.79834 11.75 6.79456 11.75 7.83332V31.3333C11.75 32.3721 12.1626 33.3683 12.8972 34.1028C13.6317 34.8373 14.6279 35.25 15.6667 35.25H39.1667C40.2054 35.25 41.2017 34.8373 41.9362 34.1028C42.6707 33.3683 43.0833 32.3721 43.0833 31.3333V7.83332C43.0833 6.79456 42.6707 5.79834 41.9362 5.06382C41.2017 4.3293 40.2054 3.91666 39.1667 3.91666ZM21.5417 27.4167V11.75L35.25 19.5833L21.5417 27.4167Z" fill="#46CEC2"/>
</svg>
