<svg width="16" height="28" viewBox="0 0 16 28" fill="none" xmlns="http://www.w3.org/2000/svg">
<path d="M15.325 0.68953C15.1129 0.471041 14.8605 0.297623 14.5824 0.179277C14.3043 0.0609309 14.0061 0 13.7048 0C13.4036 0 13.1053 0.0609309 12.8273 0.179277C12.5492 0.297623 12.2968 0.471041 12.0847 0.68953L0.674992 12.3449C0.46111 12.5616 0.291347 12.8195 0.175497 13.1035C0.0596457 13.3876 0 13.6923 0 14C0 14.3077 0.0596457 14.6124 0.175497 14.8965C0.291347 15.1805 0.46111 15.4384 0.674992 15.6551L12.0847 27.3105C12.2968 27.529 12.5492 27.7024 12.8273 27.8207C13.1053 27.9391 13.4036 28 13.7048 28C14.0061 28 14.3043 27.9391 14.5824 27.8207C14.8605 27.7024 15.1129 27.529 15.325 27.3105C15.5389 27.0938 15.7087 26.8359 15.8245 26.5519C15.9404 26.2678 16 25.9631 16 25.6554C16 25.3477 15.9404 25.043 15.8245 24.7589C15.7087 24.4749 15.5389 24.217 15.325 24.0003L5.51269 14L15.325 3.99966C15.5389 3.78296 15.7087 3.52514 15.8245 3.24108C15.9404 2.95701 16 2.65233 16 2.3446C16 2.03687 15.9404 1.73218 15.8245 1.44812C15.7087 1.16405 15.5389 0.906234 15.325 0.68953Z" fill="#D9D9D9"/>
</svg>
