<svg width="16" height="28" viewBox="0 0 16 28" fill="none" xmlns="http://www.w3.org/2000/svg">
<path d="M0.674991 0.68953C0.887126 0.471041 1.13951 0.297623 1.41759 0.179277C1.69566 0.0609309 1.99392 0 2.29516 0C2.59641 0 2.89467 0.0609309 3.17274 0.179277C3.45082 0.297623 3.7032 0.471041 3.91534 0.68953L15.325 12.3449C15.5389 12.5616 15.7087 12.8195 15.8245 13.1035C15.9404 13.3876 16 13.6923 16 14C16 14.3077 15.9404 14.6124 15.8245 14.8965C15.7087 15.1805 15.5389 15.4384 15.325 15.6551L3.91534 27.3105C3.7032 27.529 3.45082 27.7024 3.17274 27.8207C2.89467 27.9391 2.59641 28 2.29516 28C1.99392 28 1.69566 27.9391 1.41759 27.8207C1.13951 27.7024 0.887126 27.529 0.674991 27.3105C0.461109 27.0938 0.291347 26.8359 0.175496 26.5519C0.0596453 26.2678 -9.53674e-07 25.9631 -9.53674e-07 25.6554C-9.53674e-07 25.3477 0.0596453 25.043 0.175496 24.7589C0.291347 24.4749 0.461109 24.217 0.674991 24.0003L10.4873 14L0.674991 3.99966C0.461109 3.78296 0.291347 3.52514 0.175496 3.24108C0.0596453 2.95701 -9.53674e-07 2.65233 -9.53674e-07 2.3446C-9.53674e-07 2.03687 0.0596453 1.73218 0.175496 1.44812C0.291347 1.16405 0.461109 0.906234 0.674991 0.68953Z" fill="#D9D9D9"/>
</svg>
